# xmcd
#
# Track frame offsets: 
#        150
#        16445
#        32230
#        49500
#        67287
#        81820
#        93592
#        107780
#        122375
#        135242
#        148100
#        163240
#        177402
#        193260
#        212792
#        225567
#
# Disc length: 3227 seconds
#
# Revision: 3
# Processed by: cddbd v1.5.1PL0 Copyright (c) Steve Scherf et al.
# Submitted via: ExactAudioCopy v0.95a3
#
DISCID=e60c9910
DTITLE=Various Artist - Born To Boogey '93
DYEAR=1993
DGENRE=Country
TTITLE0=Billy Dean - Tryin' To Hide A Fire In The Dark
TTITLE1=Doug Stone - I Thought ItWas You 
TTITLE2=Ricky Van Shelton - Keep It Between The Lines
TTITLE3=Rodney Crowell - What Kind Of Love Crowell
TTITLE4=Collin Raye - In This Life 
TTITLE5=Don Neilson - You're My Hometown 
TTITLE6=Tracey Prescott and Lonesome Daddy - If Only You Knew
TTITLE7=Cassandra Vasik - It Comes Back To You
TTITLE8=The Kentucky Headhunters - Dumas Walker
TTITLE9=ChrisLedoux - Cadillac Ranch
TTITLE10=Marty Stuart - Now That's Country
TTITLE11=Suzy Bogguss - Drive South(JohnHiatt;1992,,Aledo,IL)
TTITLE12=Paul Overstreet - Ball And Chain
TTITLE13=TrishaYearwood - Walkaway Joe
TTITLE14=Baillie and The Boys - Long Shot
TTITLE15=Ronnie Milsap - Turn That Radio On 
EXTD=more info - MillenniumMusicProjectFormat - SYNTAX=SongTitle{Subtit
EXTD=le}[miscInfo](Lyricist;Composer;Date,Artist,Location,State,Countr
EXTD=y)
EXTT0=
EXTT1=
EXTT2=
EXTT3=
EXTT4=
EXTT5=
EXTT6=
EXTT7=
EXTT8=
EXTT9=
EXTT10=
EXTT11=
EXTT12=
EXTT13=
EXTT14=
EXTT15=
PLAYORDER=
